<?xml version="1.0" standalone="no"?>
<!DOCTYPE svg PUBLIC "-//W3C//DTD SVG 20010904//EN"
 "http://www.w3.org/TR/2001/REC-SVG-20010904/DTD/svg10.dtd">
<svg version="1.0" xmlns="http://www.w3.org/2000/svg"
 width="512.000000pt" height="512.000000pt" viewBox="0 0 512.000000 512.000000"
 preserveAspectRatio="xMidYMid meet">
<metadata>
Created by potrace 1.11, written by Peter Selinger 2001-2013
</metadata>
<g transform="translate(0.000000,512.000000) scale(0.100000,-0.100000)"
fill="#000000" stroke="none">
<path d="M0 2560 l0 -2560 2560 0 2560 0 0 2560 0 2560 -2560 0 -2560 0 0
-2560z m1745 1685 c211 -40 340 -158 392 -358 26 -97 26 -97 -125 -97 -140 0
-145 2 -156 56 -22 100 -108 165 -228 172 -163 10 -264 -78 -304 -263 -18 -79
-17 -343 0 -415 29 -123 72 -189 156 -238 42 -25 53 -27 160 -27 104 0 120 2
165 26 l50 25 3 122 3 121 -128 3 -128 3 0 105 0 105 273 3 272 2 0 -284 0
-283 -46 -43 c-89 -82 -255 -137 -440 -147 -192 -10 -340 38 -457 147 -75 70
-137 175 -169 285 -20 71 -23 102 -23 280 0 228 14 297 83 430 115 219 365
323 647 270z m1033 -702 l2 -693 -145 0 -145 0 0 695 0 696 143 -3 142 -3 3
-692z m1262 577 l0 -120 -307 -2 -308 -3 -3 -172 -2 -173 264 0 c227 0 267 -2
280 -16 12 -12 16 -37 16 -107 0 -51 -4 -98 -8 -104 -6 -9 -77 -13 -277 -15
l-270 -3 -5 -280 -5 -280 -140 0 -140 0 -3 685 c-1 377 0 691 3 698 3 9 104
12 455 12 l450 0 0 -120z m-2265 -1755 c211 -40 340 -158 392 -358 26 -97 26
-97 -125 -97 -140 0 -145 2 -156 56 -22 100 -108 165 -228 172 -163 10 -264
-78 -304 -263 -18 -79 -17 -343 0 -415 29 -123 72 -189 156 -238 42 -25 53
-27 160 -27 104 0 120 2 165 26 l50 25 3 122 3 121 -128 3 -128 3 0 105 0 105
273 3 272 2 0 -284 0 -283 -46 -43 c-89 -82 -255 -137 -440 -147 -192 -10
-340 38 -457 147 -75 70 -137 175 -169 285 -20 71 -23 102 -23 280 0 228 14
297 83 430 115 219 365 323 647 270z m1033 -702 l2 -693 -145 0 -145 0 0 695
0 696 143 -3 142 -3 3 -692z m1262 577 l0 -120 -307 -2 -308 -3 -3 -172 -2
-173 264 0 c227 0 267 -2 280 -16 12 -12 16 -37 16 -107 0 -51 -4 -98 -8 -104
-6 -9 -77 -13 -277 -15 l-270 -3 -5 -280 -5 -280 -140 0 -140 0 -3 685 c-1
377 0 691 3 698 3 9 104 12 455 12 l450 0 0 -120z"/>
</g>
</svg>
